<svg xmlns="http://www.w3.org/2000/svg" version="1.1" xmlns:xlink="http://www.w3.org/1999/xlink" xmlns:svgjs="http://svgjs.com/svgjs" width="1000" height="1000"><rect width="1000" height="1000" rx="200" ry="200" fill="#e8dbf5"></rect><g transform="matrix(24.242424242424242,0,0,24.242424242424242,102.32425129052365,159.29393496079882)"><svg xmlns="http://www.w3.org/2000/svg" version="1.1" xmlns:xlink="http://www.w3.org/1999/xlink" xmlns:svgjs="http://svgjs.com/svgjs" width="33" height="28.3"><svg version="1.1" id="Layer_1" xmlns="http://www.w3.org/2000/svg" xmlns:xlink="http://www.w3.org/1999/xlink" x="0px" y="0px" viewBox="0 0 33 28.3" style="enable-background:new 0 0 33 28.3;" xml:space="preserve">
<g>
	<g>
		<path class="st0" d="M28,8.9H4.8c-2.3,0-4.1-1.8-4.1-4s1.8-4,4.1-4H28c2.3,0,4.1,1.8,4.1,4S30.3,8.9,28,8.9z M4.8,2.1
			C3.2,2.1,2,3.3,2,4.8s1.3,2.7,2.8,2.7H28c1.5,0,2.8-1.2,2.8-2.7S29.6,2.1,28,2.1H4.8z"></path>
		<path class="st0" d="M28,9.2H4.8C2.4,9.2,0.5,7.3,0.5,5s2-4.2,4.3-4.2H28c2.4,0,4.3,1.9,4.3,4.2S30.4,9.2,28,9.2z M4.8,1.2
			C2.7,1.2,1,2.8,1,4.9s1.7,3.8,3.8,3.8H28c2.1,0,3.8-1.7,3.8-3.8S30.1,1.2,28,1.2H4.8z M28,7.8H4.8c-1.7,0-3-1.4-3-3
			c0-1.7,1.3-2.9,3-2.9H28c1.7,0,3,1.3,3,2.9S29.7,7.8,28,7.8z M4.8,2.4c-1.4,0-2.5,1.1-2.5,2.4s1.2,2.5,2.5,2.5H28
			c1.4,0,2.5-1.1,2.5-2.5S29.4,2.4,28,2.4H4.8z"></path>
	</g>
</g>
<g>
	<g>
		<path class="st0" d="M4.7,27.1c-2.2,0-4-1.8-4-4.1v-6.5c0-2.3,1.8-4.1,4-4.1s4,1.8,4,4.1V23C8.8,25.3,6.9,27.1,4.7,27.1z
			 M4.7,13.7C3.2,13.7,2,15,2,16.5V23c0,1.5,1.2,2.8,2.7,2.8s2.7-1.3,2.7-2.8v-6.5C7.5,15,6.2,13.7,4.7,13.7z"></path>
		<path class="st0" d="M4.7,27.3c-2.3,0-4.2-2-4.2-4.3v-6.5c0-2.4,1.9-4.4,4.2-4.4s4.2,2,4.2,4.4V23c0,1.1-0.4,2.2-1.1,3
			C7,26.9,5.9,27.3,4.7,27.3z M4.7,12.7c-2.1,0-3.8,1.7-3.8,3.9V23c0,2.1,1.7,3.8,3.8,3.8c1,0,2-0.4,2.7-1.2C8.1,25,8.5,24,8.5,23
			v-6.5C8.5,14.4,6.8,12.7,4.7,12.7z M4.7,26c-1.6,0-3-1.4-3-3v-6.5c0-1.7,1.4-3.1,3-3.1c0.8,0,1.6,0.3,2.2,1
			c0.6,0.6,0.8,1.3,0.8,2.1V23C7.6,24.7,6.3,26,4.7,26z M4.7,13.9c-1.3,0-2.5,1.2-2.5,2.6V23c0,1.4,1.1,2.5,2.5,2.5
			c1.3,0,2.4-1.2,2.4-2.5v-6.5c0-0.6-0.2-1.3-0.6-1.7C6,14.2,5.4,13.9,4.7,13.9z"></path>
	</g>
</g>
<g>
	<g>
		<path class="st0" d="M28.8,27.1H16.3c-1.8,0-3.3-1.5-3.3-3.3v-8.1c0-1.8,1.5-3.3,3.3-3.3h12.4c1.8,0,3.3,1.5,3.3,3.3v8.1
			C32.1,25.6,30.6,27.1,28.8,27.1z M16.3,13.7c-1.1,0-2,0.9-2,2v8.1c0,1.1,0.9,2,2,2h12.4c1.1,0,2-0.9,2-2v-8.1c0-1.1-0.9-2-2-2
			C28.7,13.7,16.3,13.7,16.3,13.7z"></path>
		<path class="st0" d="M28.8,27.3H16.3c-1.9,0-3.5-1.6-3.5-3.5v-8.1c0-1.9,1.6-3.6,3.5-3.6h12.4c1.9,0,3.5,1.6,3.5,3.6v8.1
			c0,0.9-0.3,1.8-0.9,2.5C30.7,27,29.8,27.3,28.8,27.3z M16.3,12.7c-1.7,0-3,1.4-3,3.1v8.1c0,1.7,1.4,3,3,3h12.5
			c0.8,0,1.6-0.3,2.2-0.9c0.5-0.6,0.8-1.3,0.8-2.1v-8.1c0-1.7-1.4-3.1-3-3.1C28.8,12.7,16.3,12.7,16.3,12.7z M28.7,26H16.3
			c-1.2,0-2.2-1-2.2-2.2v-8.1c0-1.2,1-2.3,2.2-2.3h12.4c1.2,0,2.2,1,2.2,2.3v8.1C31,25,29.9,26,28.7,26z M16.3,13.9
			c-1,0-1.8,0.8-1.8,1.8v8.1c0,1,0.8,1.8,1.8,1.8h12.4c1,0,1.8-0.8,1.8-1.8v-8.1c0-1-0.8-1.8-1.8-1.8C28.7,13.9,16.3,13.9,16.3,13.9
			z"></path>
	</g>
</g>
</svg></svg></g></svg>
